<?xml version="1.0" encoding="UTF-8"?>
<!DOCTYPE svg PUBLIC "-//W3C//DTD SVG 1.1//EN" "http://www.w3.org/Graphics/SVG/1.1/DTD/svg11.dtd">
<svg xmlns="http://www.w3.org/2000/svg" version="1.1" width="500px" height="500px" style="shape-rendering:geometricPrecision; text-rendering:geometricPrecision; image-rendering:optimizeQuality; fill-rule:evenodd; clip-rule:evenodd" xmlns:xlink="http://www.w3.org/1999/xlink">
<g><path style="opacity:1" fill="#75aaad" d="M -0.5,-0.5 C 166.167,-0.5 332.833,-0.5 499.5,-0.5C 499.5,166.167 499.5,332.833 499.5,499.5C 332.833,499.5 166.167,499.5 -0.5,499.5C -0.5,332.833 -0.5,166.167 -0.5,-0.5 Z"/></g>
<g><path style="opacity:1" fill="#181818" d="M 233.5,49.5 C 317.02,46.9985 380.52,80.9985 424,151.5C 459.055,219.867 457.721,287.533 420,354.5C 373.334,423.577 308.168,454.744 224.5,448C 152.53,436.671 100.364,398.504 68,333.5C 35.6964,255.184 46.0297,183.184 99,117.5C 135.272,77.9474 180.105,55.2807 233.5,49.5 Z"/></g>
<g><path style="opacity:1" fill="#f3f3f3" d="M 235.5,51.5 C 319.062,49.3508 381.896,84.0175 424,155.5C 455.225,218.137 455.225,280.804 424,343.5C 380.795,416.251 316.629,450.751 231.5,447C 161.963,438.415 109.796,403.915 75,343.5C 43.7662,280.792 43.7662,218.126 75,155.5C 110.905,93.7907 164.405,59.124 235.5,51.5 Z"/></g>
<g><path style="opacity:1" fill="#0b0b0b" d="M 258.5,91.5 C 258.337,93.8568 258.503,96.1902 259,98.5C 259.513,97.4734 260.013,96.4734 260.5,95.5C 263.368,87.5621 266.035,79.5621 268.5,71.5C 272.81,72.0802 277.143,72.4135 281.5,72.5C 281.623,82.1835 282.123,91.8501 283,101.5C 285.644,92.0524 289.144,83.0524 293.5,74.5C 295.535,75.0412 297.535,75.7078 299.5,76.5C 295.753,86.7398 292.42,97.0731 289.5,107.5C 284.926,107.086 280.426,106.419 276,105.5C 275.665,96.4739 274.999,87.4739 274,78.5C 271,86.5 268,94.5 265,102.5C 260.864,103.809 256.698,103.809 252.5,102.5C 251.594,91.1768 250.927,79.8435 250.5,68.5C 252.806,68.9926 255.139,69.3259 257.5,69.5C 258.118,76.8174 258.451,84.1507 258.5,91.5 Z"/></g>
<g><path style="opacity:1" fill="#101010" d="M 236.5,69.5 C 237.833,69.5 239.167,69.5 240.5,69.5C 240.5,71.5 240.5,73.5 240.5,75.5C 234.583,76.8111 228.583,77.4778 222.5,77.5C 222.5,80.1667 222.5,82.8333 222.5,85.5C 228.474,84.6155 234.474,83.9488 240.5,83.5C 240.5,85.5 240.5,87.5 240.5,89.5C 235.481,89.7522 230.481,90.2522 225.5,91C 224.565,93.3806 224.232,95.8806 224.5,98.5C 230.845,98.3473 237.178,98.014 243.5,97.5C 243.5,99.5 243.5,101.5 243.5,103.5C 234.861,104.497 226.194,105.163 217.5,105.5C 216.089,94.5412 215.089,83.5412 214.5,72.5C 222.052,72.1263 229.385,71.1263 236.5,69.5 Z"/></g>
<g><path style="opacity:1" fill="#090909" d="M 199.5,86.5 C 199.013,85.5266 198.513,84.5266 198,83.5C 197.204,86.0385 197.371,88.3718 198.5,90.5C 198.479,97.8536 198.813,105.187 199.5,112.5C 196.502,113.342 193.502,113.842 190.5,114C 184.637,107.104 179.137,99.937 174,92.5C 176.597,100.62 179.43,108.787 182.5,117C 181.103,118.786 179.27,119.952 177,120.5C 172.37,110.801 168.204,100.801 164.5,90.5C 167.969,87.5995 171.969,86.0995 176.5,86C 182.028,92.2267 187.194,98.7267 192,105.5C 192.3,96.4976 192.133,87.4976 191.5,78.5C 194.807,77.519 198.14,76.519 201.5,75.5C 202.167,75.8333 202.833,76.1667 203.5,76.5C 207.305,85.9445 210.972,95.4445 214.5,105C 212.933,106.81 210.933,107.977 208.5,108.5C 205.11,101.333 202.11,93.9992 199.5,86.5 Z"/></g>
<g><path style="opacity:1" fill="#0c0c0c" d="M 313.5,83.5 C 323.464,82.9797 330.964,86.9797 336,95.5C 337.692,106.114 333.859,113.948 324.5,119C 313.794,120.897 305.961,117.063 301,107.5C 299.643,96.5455 303.809,88.5455 313.5,83.5 Z"/></g>
<g><path style="opacity:1" fill="#707070" d="M 199.5,86.5 C 198.566,87.5676 198.232,88.901 198.5,90.5C 197.371,88.3718 197.204,86.0385 198,83.5C 198.513,84.5266 199.013,85.5266 199.5,86.5 Z"/></g>
<g><path style="opacity:1" fill="#efefef" d="M 315.5,90.5 C 321.226,89.9028 325.726,91.9028 329,96.5C 329.359,103.283 326.859,108.783 321.5,113C 311.399,113.901 307.232,109.401 309,99.5C 310.222,95.6856 312.389,92.6856 315.5,90.5 Z"/></g>
<g><path style="opacity:1" fill="#8c8c8c" d="M 258.5,91.5 C 259.167,92.8333 259.833,94.1667 260.5,95.5C 260.013,96.4734 259.513,97.4734 259,98.5C 258.503,96.1902 258.337,93.8568 258.5,91.5 Z"/></g>
<g><path style="opacity:1" fill="#0b0b0b" d="M 349.5,99.5 C 355.747,103.573 361.581,108.24 367,113.5C 370.509,123.3 367.009,128.133 356.5,128C 358.036,129.599 358.536,131.433 358,133.5C 356.311,136.891 354.144,139.891 351.5,142.5C 349.023,141.854 347.356,140.354 346.5,138C 348.167,135 349.833,132 351.5,129C 349.618,125.531 346.952,122.698 343.5,120.5C 340.904,124.019 338.071,127.352 335,130.5C 333.075,129.12 331.241,127.62 329.5,126C 336.383,117.29 343.05,108.457 349.5,99.5 Z"/></g>
<g><path style="opacity:1" fill="#0b0b0b" d="M 147.5,100.5 C 162.422,101.589 169.255,109.589 168,124.5C 162.597,134.454 154.43,138.287 143.5,136C 133.217,129.486 130.384,120.653 135,109.5C 138.651,105.609 142.818,102.609 147.5,100.5 Z"/></g>
<g><path style="opacity:1" fill="#efefef" d="M 146.5,107.5 C 153.594,107.41 158.427,110.744 161,117.5C 162.24,123.848 159.74,128.014 153.5,130C 146.905,130.105 142.405,126.939 140,120.5C 139.333,118.167 139.333,115.833 140,113.5C 142.063,111.266 144.229,109.266 146.5,107.5 Z"/></g>
<g><path style="opacity:1" fill="#e9e9e9" d="M 351.5,109.5 C 357.278,111.089 360.111,114.756 360,120.5C 358.534,122.325 356.701,122.825 354.5,122C 351.833,120 349.167,118 346.5,116C 348.054,113.713 349.721,111.546 351.5,109.5 Z"/></g>
<g><path style="opacity:1" fill="#0b0b0b" d="M 118.5,123.5 C 127.658,129.934 136.325,137.101 144.5,145C 142.707,146.78 141.04,148.613 139.5,150.5C 136.147,147.313 132.647,144.313 129,141.5C 126.02,145.314 122.854,148.981 119.5,152.5C 122.527,156.194 125.86,159.527 129.5,162.5C 128.167,164.5 126.5,166.167 124.5,167.5C 115.794,160.807 107.461,153.64 99.5,146C 101.017,144.315 102.684,142.815 104.5,141.5C 107.833,143.833 111.167,146.167 114.5,148.5C 117.805,144.859 121.138,141.192 124.5,137.5C 121.126,134.49 117.792,131.49 114.5,128.5C 115.857,126.814 117.19,125.148 118.5,123.5 Z"/></g>
<g><path style="opacity:1" fill="#0e0e0e" d="M 378.5,124.5 C 381.069,125.396 383.069,127.062 384.5,129.5C 380.981,132.854 377.314,136.02 373.5,139C 380.167,139.333 386.833,139.667 393.5,140C 395.5,142.333 397.5,144.667 399.5,147C 393.161,147.348 386.827,147.182 380.5,146.5C 378.644,153.921 376.478,161.255 374,168.5C 371.55,166.427 369.717,163.927 368.5,161C 370.071,156.214 371.404,151.38 372.5,146.5C 367.35,145.536 363.017,146.87 359.5,150.5C 357.5,149.167 355.833,147.5 354.5,145.5C 362.52,138.478 370.52,131.478 378.5,124.5 Z"/></g>
<g><path style="opacity:1" fill="#151919" d="M 233.5,121.5 C 289.869,117.765 332.703,139.765 362,187.5C 378.845,219.434 382.179,252.768 372,287.5C 358.326,328.507 331.159,356.341 290.5,371C 237.78,386.532 192.28,374.699 154,335.5C 123.248,298.694 114.248,257.027 127,210.5C 145.699,160.627 181.199,130.96 233.5,121.5 Z"/></g>
<g><path style="opacity:1" fill="#75a9ac" d="M 233.5,123.5 C 287.984,119.991 329.818,140.991 359,186.5C 380.958,228.46 380.958,270.46 359,312.5C 330.11,357.862 288.61,378.695 234.5,375C 182.373,366.2 147.206,337.034 129,287.5C 115.07,236.045 127.237,191.879 165.5,155C 185.31,138.261 207.976,127.761 233.5,123.5 Z"/></g>
<g><path style="opacity:1" fill="#344b4c" d="M 327.5,210.5 C 325.833,210.5 324.167,210.5 322.5,210.5C 322.831,238.672 322.498,266.672 321.5,294.5C 321.5,266.167 321.5,237.833 321.5,209.5C 323.735,209.205 325.735,209.539 327.5,210.5 Z"/></g>
<g><path style="opacity:1" fill="#060808" d="M 321.5,294.5 C 322.498,266.672 322.831,238.672 322.5,210.5C 324.167,210.5 325.833,210.5 327.5,210.5C 327.5,241.5 327.5,272.5 327.5,303.5C 315.051,303.222 303.051,300.722 291.5,296C 283.064,293.797 274.731,294.131 266.5,297C 260.789,299.07 255.122,301.237 249.5,303.5C 239.335,298.626 228.669,295.626 217.5,294.5C 208.629,295.718 199.963,297.884 191.5,301C 185.235,302.42 178.902,303.254 172.5,303.5C 172.5,272.167 172.5,240.833 172.5,209.5C 174.167,209.5 175.833,209.5 177.5,209.5C 177.5,237.833 177.5,266.167 177.5,294.5C 192.039,292.392 206.372,289.392 220.5,285.5C 230.803,286.869 240.637,289.869 250,294.5C 261.017,288.23 272.85,285.397 285.5,286C 296.982,291.037 308.982,293.871 321.5,294.5 Z"/></g>
<g><path style="opacity:1" fill="#344b4c" d="M 252.5,204.5 C 252.169,233.338 252.502,262.005 253.5,290.5C 253.44,291.043 253.107,291.376 252.5,291.5C 251.17,262.336 251.17,233.336 252.5,204.5 Z"/></g>
<g><path style="opacity:1" fill="#040404" d="M 253.5,290.5 C 252.502,262.005 252.169,233.338 252.5,204.5C 262.262,197.142 273.262,194.309 285.5,196C 296.696,200.883 308.363,203.716 320.5,204.5C 320.5,233.5 320.5,262.5 320.5,291.5C 309.517,290.337 298.85,287.837 288.5,284C 276.066,282.294 264.399,284.46 253.5,290.5 Z"/></g>
<g><path style="opacity:1" fill="#040404" d="M 214.5,195.5 C 226.712,194.739 237.878,197.739 248,204.5C 248.833,233.506 248.667,262.506 247.5,291.5C 236.716,284.963 225.049,282.463 212.5,284C 202.106,287.766 191.439,290.266 180.5,291.5C 180.5,262.5 180.5,233.5 180.5,204.5C 192.566,203.916 203.9,200.916 214.5,195.5 Z"/></g>
<g><path style="opacity:1" fill="#141414" d="M 414.5,260.5 C 415.167,266.814 418.5,271.148 424.5,273.5C 418.573,275.266 415.406,279.266 415,285.5C 414.229,277.401 409.729,273.567 401.5,274C 405.055,272.957 408.555,271.791 412,270.5C 413.759,267.392 414.592,264.059 414.5,260.5 Z"/></g>
<g><path style="opacity:1" fill="#1b1b1b" d="M 84.5,283.5 C 83.8333,283.167 83.1667,282.833 82.5,282.5C 82.528,280.418 81.8613,278.584 80.5,277C 77.0433,275.257 73.3767,274.257 69.5,274C 72.8831,273.125 76.2165,272.125 79.5,271C 80.7014,270.097 81.5348,268.931 82,267.5C 82.413,264.768 83.0797,262.101 84,259.5C 84.2565,263.377 85.2565,267.043 87,270.5C 90.1367,271.823 93.3034,272.99 96.5,274C 89.5879,273.61 85.5879,276.777 84.5,283.5 Z"/></g>
<g><path style="opacity:1" fill="#949494" d="M 82.5,282.5 C 83.1667,282.833 83.8333,283.167 84.5,283.5C 83.7544,288.479 83.0878,288.146 82.5,282.5 Z"/></g>
<g><path style="opacity:1" fill="#0a0a0a" d="M 169.5,375.5 C 171.969,376.569 174.302,377.902 176.5,379.5C 173.596,383.268 171.929,387.268 171.5,391.5C 175.5,393.5 179.5,395.5 183.5,397.5C 186.069,394.039 188.403,390.372 190.5,386.5C 192.882,387.351 194.882,388.684 196.5,390.5C 191.333,400.167 186.167,409.833 181,419.5C 178.856,418.354 177.023,416.854 175.5,415C 177.167,411.333 178.833,407.667 180.5,404C 178.373,402.098 176.04,400.431 173.5,399C 171.598,397.699 169.598,397.032 167.5,397C 165.041,400.75 162.708,404.583 160.5,408.5C 158.228,407.559 156.228,406.226 154.5,404.5C 159.781,394.937 164.781,385.27 169.5,375.5 Z"/></g>
<g><path style="opacity:1" fill="#0a0a0a" d="M 323.5,378.5 C 333.87,379.372 336.87,384.539 332.5,394C 334.5,394.333 336.5,394.667 338.5,395C 340.625,398.082 342.625,401.249 344.5,404.5C 342.882,406.316 340.882,407.649 338.5,408.5C 336.377,405.754 334.377,402.921 332.5,400C 327.941,398.895 324.274,400.229 321.5,404C 323.03,407.561 324.697,411.061 326.5,414.5C 324.312,416.87 321.812,417.537 319,416.5C 314.039,407.412 309.206,398.246 304.5,389C 310.895,385.472 317.229,381.972 323.5,378.5 Z"/></g>
<g><path style="opacity:1" fill="#e7e7e7" d="M 322.5,385.5 C 325.887,385.716 327.887,387.55 328.5,391C 325.798,394.201 322.465,396.701 318.5,398.5C 316.777,396.222 315.444,393.722 314.5,391C 317.029,388.907 319.696,387.074 322.5,385.5 Z"/></g>
<g><path style="opacity:1" fill="#0d0d0d" d="M 198.5,390.5 C 206.482,392.662 214.482,394.829 222.5,397C 222.854,398.626 222.854,400.459 222.5,402.5C 216.136,401.326 209.803,399.992 203.5,398.5C 202.637,400.895 202.637,403.229 203.5,405.5C 208.554,407.013 213.554,408.68 218.5,410.5C 217.754,411.736 217.421,413.07 217.5,414.5C 211.771,414.09 206.271,412.757 201,410.5C 199.116,413.178 198.616,416.011 199.5,419C 205.254,420.416 210.921,422.083 216.5,424C 215.833,425.333 215.167,426.667 214.5,428C 206.264,427.442 198.264,425.609 190.5,422.5C 190.167,422 189.833,421.5 189.5,421C 192.692,410.861 195.692,400.694 198.5,390.5 Z"/></g>
<g><path style="opacity:1" fill="#0c0c0c" d="M 300.5,389.5 C 301.5,389.5 302.5,389.5 303.5,389.5C 303.833,391.5 304.167,393.5 304.5,395.5C 298.833,396.833 293.167,398.167 287.5,399.5C 287.833,402.167 288.167,404.833 288.5,407.5C 293.283,406.095 298.117,404.762 303,403.5C 306.003,403.743 307.17,405.41 306.5,408.5C 301.167,409.833 295.833,411.167 290.5,412.5C 291.167,415.167 291.833,417.833 292.5,420.5C 298.877,418.989 305.21,417.323 311.5,415.5C 311.833,417.5 312.167,419.5 312.5,421.5C 304.423,423.52 296.423,425.853 288.5,428.5C 287.914,428.291 287.414,427.957 287,427.5C 283.687,417.247 281.021,406.914 279,396.5C 286.329,394.382 293.495,392.049 300.5,389.5 Z"/></g>
<g><path style="opacity:1" fill="#0b0b0b" d="M 243.5,426.5 C 245.075,428.114 245.741,430.114 245.5,432.5C 237.79,432.273 230.123,431.606 222.5,430.5C 223.441,419.485 224.441,408.485 225.5,397.5C 227.833,397.5 230.167,397.5 232.5,397.5C 232.304,406.871 231.637,416.204 230.5,425.5C 234.824,425.927 239.158,426.261 243.5,426.5 Z"/></g>
<g><path style="opacity:1" fill="#090909" d="M 253.5,398.5 C 259.842,398.334 266.175,398.5 272.5,399C 278.025,401.919 279.858,406.419 278,412.5C 277.654,414.848 276.487,416.681 274.5,418C 269.57,419.241 264.57,420.075 259.5,420.5C 259.5,424.5 259.5,428.5 259.5,432.5C 256.833,432.5 254.167,432.5 251.5,432.5C 251.436,421.459 250.769,410.459 249.5,399.5C 251.099,399.768 252.432,399.434 253.5,398.5 Z"/></g>
<g><path style="opacity:1" fill="#e9e9e9" d="M 257.5,404.5 C 261.182,404.335 264.848,404.501 268.5,405C 271.539,408.805 270.872,411.805 266.5,414C 263.518,414.498 260.518,414.665 257.5,414.5C 257.5,411.167 257.5,407.833 257.5,404.5 Z"/></g>
<g><path style="opacity:1" fill="#6e6e6e" d="M 243.5,426.5 C 244.5,426.5 245.5,426.5 246.5,426.5C 246.795,428.735 246.461,430.735 245.5,432.5C 245.741,430.114 245.075,428.114 243.5,426.5 Z"/></g>
</svg>
